<svg xmlns="http://www.w3.org/2000/svg" viewBox="0 0 512 512"><!--! Font Awesome Pro 6.5.0 by @fontawesome - https://fontawesome.com License - https://fontawesome.com/license (Commercial License) Copyright 2023 Fonticons, Inc. --><path d="M16 496h96v16H16 0V496 16 0H16 224L384 160V304H368V176H216h-8v-8V16H16V496zM361.4 160L224 22.6V160H361.4zM176 368h32c26.5 0 48 21.5 48 48s-21.5 48-48 48H184v40 8H168v-8V456 376v-8h8zm32 80c17.7 0 32-14.3 32-32s-14.3-32-32-32H184v64h24zm96-80h4 5.3l2.1 4.9 44.6 105V376v-8h16v8V504v8h-8-5.6-5.3l-2.1-4.9L312 405.9V504v8H296v-8V376v-8h8zm120 32c0-17.7 14.3-32 32-32h16c17.7 0 32 14.3 32 32v16H488V400c0-8.8-7.2-16-16-16H456c-8.8 0-16 7.2-16 16v80c0 8.8 7.2 16 16 16h16c8.8 0 16-7.2 16-16V464h-8-8V448h8 16 8v8 24c0 17.7-14.3 32-32 32H456c-17.7 0-32-14.3-32-32V400z"/></svg>