<svg xmlns="http://www.w3.org/2000/svg" viewBox="0 0 512 512"><!--! Font Awesome Pro 6.5.0 by @fontawesome - https://fontawesome.com License - https://fontawesome.com/license (Commercial License) Copyright 2023 Fonticons, Inc. --><path d="M267.3 11.3L331 75h90 16V91v90l63.7 63.7L512 256l-11.3 11.3L437 331v90 16H421 331l-63.7 63.7L256 512l-11.3-11.3L181 437H91 75V421 331L11.3 267.3 0 256l11.3-11.3L75 181V91 75H91h90l63.7-63.7L256 0l11.3 11.3zM331 91h-6.6l-4.7-4.7L256 22.6 192.3 86.3 187.6 91H181 91v90 6.6l-4.7 4.7L22.6 256l63.7 63.7 4.7 4.7V331v90h90 6.6l4.7 4.7L256 489.4l63.7-63.7 4.7-4.7H331h90V331v-6.6l4.7-4.7L489.4 256l-63.7-63.7-4.7-4.7V181 91H331zm-67 37v8V296v8H248v-8V136v-8h16zM240 336h32v32H240V336z"/></svg>