<svg xmlns="http://www.w3.org/2000/svg" viewBox="0 0 640 512"><!--! Font Awesome Pro 6.5.0 by @fontawesome - https://fontawesome.com License - https://fontawesome.com/license (Commercial License) Copyright 2023 Fonticons, Inc. --><path d="M329.4 41.4L288 0C245.3 26.7 160 102.4 160 192c0 30.3 8.4 58.6 23 82.7c2.9 1.6 5.7 3.3 8.4 5.2c6.4-6.8 13.3-13.2 20.7-18.9C199.4 241 192 217.4 192 192c0-34.7 16.7-69.1 41-99.7c16.4-20.6 35.2-38 51.4-50.7l45 45L352 109.3l22.6-22.6L385 76.2C437 128.3 448 177.9 448 192c0 25.4-7.4 49-20.1 68.9c7.4 5.8 14.3 12.1 20.7 18.9c2.7-1.8 5.5-3.5 8.4-5.2c14.6-24.1 23-52.4 23-82.7c0-26.7-19.2-96-96-160l-9.4 9.4L352 64 329.4 41.4zM415.3 252C406.6 185.9 320 128.2 320 128.2s-86.6 57.7-95.3 123.9c12.1-7.8 25.3-14.2 39.2-18.9c6.9-13.9 17.8-28.2 31.1-41.9c8.8-9 17.6-16.9 25-23c7.4 6.1 16.2 13.9 25 23c13.3 13.7 24.2 28.1 31.1 41.9c13.9 4.7 27.1 11.1 39.2 18.9zM213.9 364c15-44.2 56.9-76 106.1-76s91.1 31.8 106.1 76l12.7 37.4 16.9-35.6C468.6 338.7 496.1 320 528 320c44.2 0 80 35.8 80 80v80H528 404.7 235.3 112 32V400c0-44.2 35.8-80 80-80c31.9 0 59.4 18.7 72.3 45.7l16.9 35.6L213.9 364zM320 256c-52.6 0-98.6 28.2-123.7 70.3C175.8 302.8 145.6 288 112 288C50.1 288 0 338.1 0 400v96 16H16h96H235.3 404.7 528h96 16V496 400c0-61.9-50.1-112-112-112c-33.6 0-63.8 14.8-84.3 38.3C418.6 284.2 372.6 256 320 256z"/></svg>