<svg xmlns="http://www.w3.org/2000/svg" viewBox="0 0 512 512"><!--! Font Awesome Pro 6.5.0 by @fontawesome - https://fontawesome.com License - https://fontawesome.com/license (Commercial License) Copyright 2023 Fonticons, Inc. --><defs><style>.fa-secondary{opacity:.4}</style></defs><path class="fa-secondary" d="M0 64C0 28.7 28.7 0 64 0H224V128c0 17.7 14.3 32 32 32H384V304H176c-35.3 0-64 28.7-64 64V512H64c-35.3 0-64-28.7-64-64V64z"/><path class="fa-primary" d="M384 160L224 0V128c0 17.7 14.3 32 32 32H384zM318.3 360.8c-3.3-6.6-10.8-10.1-18-8.4s-12.3 8.2-12.3 15.6V496c0 8.8 7.2 16 16 16s16-7.2 16-16V435.8l33.7 67.4c3.3 6.6 10.8 10.1 18 8.4s12.3-8.2 12.3-15.6V368c0-8.8-7.2-16-16-16s-16 7.2-16 16v60.2l-33.7-67.4zM176 352c-8.8 0-16 7.2-16 16v80 48c0 8.8 7.2 16 16 16s16-7.2 16-16V464h16c30.9 0 56-25.1 56-56s-25.1-56-56-56H176zm32 80H192V384h16c13.3 0 24 10.7 24 24s-10.7 24-24 24zm208-40v80c0 22.1 17.9 40 40 40h16c22.1 0 40-17.9 40-40V448c0-8.8-7.2-16-16-16H480c-8.8 0-16 7.2-16 16s7.2 16 16 16v8c0 4.4-3.6 8-8 8H456c-4.4 0-8-3.6-8-8V392c0-4.4 3.6-8 8-8h16c4.4 0 8 3.6 8 8v8c0 8.8 7.2 16 16 16s16-7.2 16-16v-8c0-22.1-17.9-40-40-40H456c-22.1 0-40 17.9-40 40z"/></svg>