<svg xmlns="http://www.w3.org/2000/svg" viewBox="0 0 640 512"><!--! Font Awesome Pro 6.5.0 by @fontawesome - https://fontawesome.com License - https://fontawesome.com/license (Commercial License) Copyright 2023 Fonticons, Inc. --><path d="M288 0l64 64 32-32c76.8 64 96 133.3 96 160c0 27.9-7.2 54.2-19.8 77.1l-22.9 6.1c-14.9-16-33-29-53.4-37.9c-2.4-47-63.9-93.1-63.9-93.1s-61.5 46.1-63.9 93.1c-20.4 8.9-38.5 21.9-53.4 37.9l-22.9-6.1C167.2 246.2 160 219.9 160 192c0-89.6 85.3-165.3 128-192zM640 512l-112 0c-.9 0-1.7 0-2.6 0H320 112.1 112 96 48 0V464 400c0-9.6 1.2-19.3 3.8-29c16-59.7 77.4-95.2 137.2-79.2l73.5 19.7C237.6 278 276.2 256 320 256s82.4 22 105.5 55.5L499 291.8c59.7-16 121.2 19.4 137.2 79.2c2.6 9.7 3.8 19.4 3.8 29l0 112zM96 464h16 .1H320 525.4h.5l.5 0c.5 0 1 0 1.5 0h0l64 0 0-64v0c0-5.4-.7-11-2.2-16.6c-9.1-34.1-44.2-54.4-78.4-45.3l-73.5 19.7-32.7 8.8L386 338.7c-14.5-21.1-38.6-34.7-66-34.7s-51.5 13.7-66 34.7l-19.2 27.9-32.7-8.8-73.5-19.7c-34.1-9.1-69.2 11.1-78.4 45.3C48.7 389 48 394.6 48 400v64H96z"/></svg>