<svg xmlns="http://www.w3.org/2000/svg" viewBox="0 0 640 512"><!--! Font Awesome Pro 6.5.0 by @fontawesome - https://fontawesome.com License - https://fontawesome.com/license (Commercial License) Copyright 2023 Fonticons, Inc. --><path d="M340.7 52.8L352 64.2l11.3-11.3L384 32.2c76.8 64 96 133.3 96 160c0 30.2-8.3 58.4-22.9 82.5c-4.5 2.6-8.9 5.3-13.1 8.4c-2.1-2.6-4.3-5.1-6.6-7.6c16.7-23.5 26.5-52.2 26.5-83.3c0-20.2-14.9-79.7-79.2-138.1L363.3 75.5 352 86.8 340.7 75.5 286 20.7c-19.3 13.6-44.2 35.1-65.4 61.8C195 114.5 176 152.4 176 192.2c0 31 9.8 59.8 26.5 83.3c-2.3 2.5-4.5 5-6.6 7.6c-4.2-3-8.5-5.8-13.1-8.4c-14.5-24.1-22.9-52.3-22.9-82.5c0-89.6 85.3-165.3 128-192l52.7 52.7zM224.3 255.8c5.8-67.7 95.7-127.6 95.7-127.6s89.9 59.9 95.7 127.6c-5.8-4.4-12-8.3-18.4-11.9c-6.2-22.5-22.4-44.8-40.9-63.8c-11.4-11.8-22.8-21.5-31.4-28.3c-1.8-1.5-3.5-2.8-5.1-3.9c-1.5 1.2-3.2 2.5-5.1 3.9c-8.6 6.8-20 16.5-31.4 28.3c-18.4 19-34.7 41.3-40.9 63.8c-6.4 3.5-12.5 7.5-18.4 11.9zM112 288c30.7 0 58.5 12.4 78.8 32.4c4.2 4.1 8 8.6 11.5 13.3c2.3-5.4 5-10.7 8-15.7c22.4-37.2 63.1-62 109.7-62s87.3 24.9 109.7 62c3 5 5.7 10.2 8 15.7c3.5-4.7 7.3-9.2 11.5-13.3c20.2-20 48.1-32.4 78.8-32.4c61.9 0 112 50.1 112 112v96 16H624 528 320 112 16 0V496 400c0-61.9 50.1-112 112-112zM624 400c0-53-43-96-96-96c-31.7 0-59.9 15.4-77.4 39.2L434 365.7 423 340c-17.1-40-56.8-68-103-68s-85.9 28-103 68l-11 25.7-16.6-22.5C171.9 319.4 143.7 304 112 304c-53 0-96 43-96 96v96h96H320 528h96V400z"/></svg>