<svg xmlns="http://www.w3.org/2000/svg" viewBox="0 0 512 512"><!--! Font Awesome Pro 6.5.0 by @fontawesome - https://fontawesome.com License - https://fontawesome.com/license (Commercial License) Copyright 2023 Fonticons, Inc. --><path d="M267.3 11.3L323 67h98 16V83v98l63.7 63.7L512 256l-11.3 11.3L437 331v98 16H421 323l-55.7 55.7L256 512l-11.3-11.3L189 445H91 75V429 331L11.3 267.3 0 256l11.3-11.3L75 181V83 67H91h98l55.7-55.7L256 0l11.3 11.3zM323 83h-6.6l-4.7-4.7L256 22.6 200.3 78.3 195.6 83H189 91v98 6.6l-4.7 4.7L22.6 256l63.7 63.7 4.7 4.7V331v98h98 6.6l4.7 4.7L256 489.4l55.7-55.7 4.7-4.7H323h98V331v-6.6l4.7-4.7L489.4 256l-63.7-63.7-4.7-4.7V181 83H323zM168 184c0-30.9 25.1-56 56-56h56.2c35.2 0 63.8 28.6 63.8 63.8c0 21.4-10.8 41.5-28.7 53.3L264 278.9V304v8H248v-8V274.5v-4.3l3.6-2.4 54.9-36.2c13.4-8.8 21.5-23.8 21.5-39.9c0-26.4-21.4-47.8-47.8-47.8H224c-22.1 0-40 17.9-40 40l0 6.5-16 0V184zm72 152h32v32H240V336z"/></svg>