<svg xmlns="http://www.w3.org/2000/svg" viewBox="0 0 512 512"><!--! Font Awesome Pro 6.5.0 by @fontawesome - https://fontawesome.com License - https://fontawesome.com/license (Commercial License) Copyright 2023 Fonticons, Inc. --><path d="M86.6 198.6c6-6 9.4-14.1 9.4-22.6V112c0-8.8 7.2-16 16-16h64c8.5 0 16.6-3.4 22.6-9.4l52.7-52.7c1.2-1.2 2.9-1.9 4.7-1.9s3.4 .7 4.7 1.9l52.7 52.7c6 6 14.1 9.4 22.6 9.4h64c8.8 0 16 7.2 16 16v64c0 8.5 3.4 16.6 9.4 22.6l52.7 52.7c1.2 1.2 1.9 2.9 1.9 4.7s-.7 3.4-1.9 4.7l-52.7 52.7c-6 6-9.4 14.1-9.4 22.6v64c0 8.8-7.2 16-16 16H336c-8.5 0-16.6 3.4-22.6 9.4l-52.7 52.7c-1.2 1.2-2.9 1.9-4.7 1.9s-3.4-.7-4.7-1.9l-52.7-52.7c-6-6-14.1-9.4-22.6-9.4H112c-8.8 0-16-7.2-16-16V336c0-8.5-3.4-16.6-9.4-22.6L33.9 260.7c-1.2-1.2-1.9-2.9-1.9-4.7s.7-3.4 1.9-4.7l52.7-52.7zM64 112v64L11.3 228.7C4.1 235.9 0 245.8 0 256s4.1 20.1 11.3 27.3L64 336v64c0 26.5 21.5 48 48 48h64l52.7 52.7c7.2 7.2 17.1 11.3 27.3 11.3s20.1-4.1 27.3-11.3L336 448h64c26.5 0 48-21.5 48-48V336l52.7-52.7c7.2-7.2 11.3-17.1 11.3-27.3s-4.1-20.1-11.3-27.3L448 176V112c0-26.5-21.5-48-48-48H336L283.3 11.3C276.1 4.1 266.2 0 256 0s-20.1 4.1-27.3 11.3L176 64H112c-26.5 0-48 21.5-48 48zm192 16c-8.8 0-16 7.2-16 16V272c0 8.8 7.2 16 16 16s16-7.2 16-16V144c0-8.8-7.2-16-16-16zm24 224a24 24 0 1 0 -48 0 24 24 0 1 0 48 0z"/></svg>