<svg xmlns="http://www.w3.org/2000/svg" viewBox="0 0 512 512"><!--! Font Awesome Pro 6.5.0 by @fontawesome - https://fontawesome.com License - https://fontawesome.com/license (Commercial License) Copyright 2023 Fonticons, Inc. --><path d="M0 0H224V160H384V304H112V512H0V0zM384 128H256V0L384 128zM176 352h32c30.9 0 56 25.1 56 56s-25.1 56-56 56H192v32 16H160V496 448 368 352h16zm32 80c13.3 0 24-10.7 24-24s-10.7-24-24-24H192v48h16zm96-80h4 10.6l4.1 9.7L352 430.6V368 352h32v16V496v16H368h-5.6H351.8l-4.1-9.7L320 437.1V496v16H288V496 368 352h16zm112 40c0-22.1 17.9-40 40-40h16c22.1 0 40 17.9 40 40v16H480V392c0-4.4-3.6-8-8-8H456c-4.4 0-8 3.6-8 8v80c0 4.4 3.6 8 8 8h16c4.4 0 8-3.6 8-8v-8H464V432h16 16 16v16 24c0 22.1-17.9 40-40 40H456c-22.1 0-40-17.9-40-40V392z"/></svg>