<svg xmlns="http://www.w3.org/2000/svg" viewBox="0 0 640 512"><!--! Font Awesome Pro 6.5.0 by @fontawesome - https://fontawesome.com License - https://fontawesome.com/license (Commercial License) Copyright 2023 Fonticons, Inc. --><path d="M160 192c0 30.3 8.4 58.6 23 82.7c4.5 2.5 8.8 5.3 12.9 8.3c16-19.6 36.6-35.4 60.2-45.7c2.5-47 63.9-93.1 63.9-93.1s61.5 46.1 63.9 93.1c23.5 10.3 44.1 26 60.2 45.7c4.2-3 8.5-5.7 12.9-8.3c14.6-24.1 23-52.4 23-82.7c0-26.7-19.2-96-96-160L352 64 288 0C245.3 26.7 160 102.4 160 192zM0 512H112 320 528 640V400c0-61.9-50.1-112-112-112c-37 0-69.9 18-90.3 45.7C418.2 288 372.8 256 320 256s-98.2 32-117.7 77.7C181.9 306 149 288 112 288C50.1 288 0 338.1 0 400V512z"/></svg>