<svg xmlns="http://www.w3.org/2000/svg" viewBox="0 0 512 512"><!--! Font Awesome Pro 6.5.0 by @fontawesome - https://fontawesome.com License - https://fontawesome.com/license (Commercial License) Copyright 2023 Fonticons, Inc. --><path d="M75.3 187.3c3-3 4.7-7.1 4.7-11.3V112c0-17.7 14.3-32 32-32h64c4.2 0 8.3-1.7 11.3-4.7L240 22.6c4.2-4.2 10-6.6 16-6.6s11.8 2.4 16 6.6l52.7 52.7c3 3 7.1 4.7 11.3 4.7h64c17.7 0 32 14.3 32 32v64c0 4.2 1.7 8.3 4.7 11.3L489.4 240c4.2 4.2 6.6 10 6.6 16s-2.4 11.8-6.6 16l-52.7 52.7c-3 3-4.7 7.1-4.7 11.3v64c0 17.7-14.3 32-32 32H336c-4.2 0-8.3 1.7-11.3 4.7L272 489.4c-4.2 4.2-10 6.6-16 6.6s-11.8-2.4-16-6.6l-52.7-52.7c-3-3-7.1-4.7-11.3-4.7H112c-17.7 0-32-14.3-32-32V336c0-4.2-1.7-8.3-4.7-11.3L22.6 272c-4.2-4.2-6.6-10-6.6-16s2.4-11.8 6.6-16l52.7-52.7zM64 112v64L11.3 228.7C4.1 235.9 0 245.8 0 256s4.1 20.1 11.3 27.3L64 336v64c0 26.5 21.5 48 48 48h64l52.7 52.7c7.2 7.2 17.1 11.3 27.3 11.3s20.1-4.1 27.3-11.3L336 448h64c26.5 0 48-21.5 48-48V336l52.7-52.7c7.2-7.2 11.3-17.1 11.3-27.3s-4.1-20.1-11.3-27.3L448 176V112c0-26.5-21.5-48-48-48H336L283.3 11.3C276.1 4.1 266.2 0 256 0s-20.1 4.1-27.3 11.3L176 64H112c-26.5 0-48 21.5-48 48zm192 16c-4.4 0-8 3.6-8 8V296c0 4.4 3.6 8 8 8s8-3.6 8-8V136c0-4.4-3.6-8-8-8zm16 224a16 16 0 1 0 -32 0 16 16 0 1 0 32 0z"/></svg>